<?xml version="1.0" standalone="no"?>
<!DOCTYPE svg PUBLIC "-//W3C//DTD SVG 20010904//EN"
 "http://www.w3.org/TR/2001/REC-SVG-20010904/DTD/svg10.dtd">
<svg version="1.0" xmlns="http://www.w3.org/2000/svg"
 width="512.000000pt" height="512.000000pt" viewBox="0 0 512.000000 512.000000"
 preserveAspectRatio="xMidYMid meet">

<g transform="translate(0.000000,512.000000) scale(0.100000,-0.100000)"
fill="#000000" stroke="none">
<path d="M2090 3083 c-178 -505 -389 -1106 -470 -1336 l-147 -418 110 3 111 3
111 337 c61 185 119 346 130 358 18 20 26 20 630 20 478 0 615 -3 629 -13 10
-8 60 -145 130 -357 l114 -345 106 -3 c58 -1 106 0 106 4 0 4 -210 605 -467
1335 l-467 1329 -151 0 -152 0 -323 -917z m524 664 c22 -33 496 -1425 496
-1456 0 -15 -7 -37 -16 -49 l-15 -22 -511 0 c-568 0 -548 -2 -548 66 0 41 475
1442 497 1466 24 26 79 24 97 -5z"/>
</g>
</svg>
